<?xml version="1.0" standalone="no"?>
<!DOCTYPE svg PUBLIC "-//W3C//DTD SVG 20010904//EN"
 "http://www.w3.org/TR/2001/REC-SVG-20010904/DTD/svg10.dtd">
<svg version="1.0" xmlns="http://www.w3.org/2000/svg"
 width="1164.000000pt" height="989.000000pt" viewBox="0 0 1164.000000 989.000000"
 preserveAspectRatio="xMidYMid meet">

<g transform="translate(0.000000,989.000000) scale(0.100000,-0.100000)"
fill="#000000" stroke="none">
<path d="M2155 9856 c-93 -62 -156 -152 -200 -284 -13 -40 -14 -56 -5 -67 9
-10 7 -15 -10 -20 -11 -4 -28 -18 -37 -31 -28 -44 -11 -48 220 -55 238 -7 284
-16 321 -60 48 -57 230 -151 381 -198 71 -22 169 -28 180 -11 21 34 -47 76
-206 129 -78 25 -141 68 -197 132 -46 51 -119 94 -177 104 -74 12 -75 13 -64
42 7 20 2 50 -27 142 -55 178 -71 211 -103 211 -14 0 -49 -15 -76 -34z m87
-117 c11 -30 24 -79 29 -109 6 -30 19 -69 29 -86 l18 -32 -131 -6 c-73 -4
-145 -9 -162 -12 l-30 -5 30 19 c45 29 61 52 74 106 20 82 88 192 114 183 6
-2 19 -28 29 -58z"/>
<path d="M1510 9823 c-69 -78 -123 -160 -209 -314 -98 -176 -112 -211 -208
-494 -99 -294 -116 -379 -117 -575 -1 -134 2 -165 21 -225 42 -133 106 -207
307 -357 115 -87 220 -148 251 -148 31 0 12 36 -36 70 -73 51 -202 191 -269
293 -174 263 -195 585 -65 973 52 156 99 250 212 424 56 85 118 182 140 214
21 33 43 62 50 64 6 2 19 -11 28 -28 30 -58 98 -265 104 -315 5 -41 10 -51 27
-53 30 -4 72 34 84 78 10 37 7 45 -66 187 -58 114 -88 160 -129 201 -29 28
-60 52 -68 52 -9 0 -34 -21 -57 -47z"/>
<path d="M2217 9045 c-16 -8 -42 -26 -58 -39 -15 -13 -51 -32 -79 -41 -48 -16
-51 -19 -48 -48 4 -44 30 -45 116 -8 55 24 83 30 128 29 70 -2 134 19 134 42
0 23 -31 49 -77 66 -50 17 -82 17 -116 -1z"/>
<path d="M3011 8942 c-5 -10 -24 -92 -41 -183 -40 -213 -49 -239 -116 -325
-75 -99 -170 -185 -284 -260 -52 -34 -107 -75 -122 -90 -50 -54 -81 -154 -47
-154 5 0 28 21 51 46 34 36 74 61 197 120 161 78 233 127 290 197 47 58 88
148 106 232 27 127 45 378 29 419 -8 22 -51 20 -63 -2z"/>
<path d="M728 8680 c-98 -30 -332 -181 -483 -312 -124 -108 -140 -124 -149
-155 -11 -33 13 -29 65 11 139 106 404 251 510 279 82 22 172 69 188 98 12 22
12 29 0 55 -12 25 -20 29 -59 31 -25 1 -57 -2 -72 -7z"/>
<path d="M792 8313 c-50 -28 -209 -162 -269 -228 -66 -72 -188 -253 -237 -351
-54 -109 -86 -251 -53 -238 7 2 18 19 25 37 15 42 115 195 181 277 79 99 219
238 285 282 32 22 86 52 120 65 80 33 86 38 86 85 0 75 -66 109 -138 71z"/>
<path d="M917 7990 c-48 -41 -130 -163 -177 -262 -70 -145 -89 -302 -48 -388
l21 -45 7 50 c12 82 49 205 87 285 30 62 54 93 144 183 127 125 134 146 69
190 -36 25 -65 21 -103 -13z"/>
<path d="M2657 7743 c-4 -3 -7 -16 -7 -27 0 -32 148 -353 226 -491 175 -310
201 -370 270 -620 95 -342 155 -729 155 -1000 0 -146 -3 -171 -27 -310 -7 -44
-27 -184 -44 -312 -16 -127 -37 -265 -45 -305 -17 -80 -89 -330 -130 -448 -14
-41 -37 -121 -50 -178 -38 -158 -1 -142 -318 -142 l-272 0 -17 105 c-29 180
-120 413 -258 660 -48 88 -109 212 -135 275 -26 63 -79 176 -120 250 -87 160
-131 264 -195 460 -27 80 -71 210 -100 290 -62 173 -133 449 -156 604 -12 80
-15 152 -11 261 4 150 24 262 89 520 26 102 27 119 7 123 -21 4 -92 -85 -150
-185 -91 -160 -118 -290 -121 -588 -2 -219 1 -236 102 -554 86 -272 86 -272
310 -748 26 -55 75 -146 109 -200 63 -103 159 -298 181 -368 7 -22 34 -80 60
-130 65 -122 176 -399 201 -499 11 -44 22 -125 26 -178 l6 -98 -547 0 -547 0
-157 91 c-242 141 -406 264 -470 352 -37 52 -88 181 -107 273 -17 79 -20 252
-5 304 28 99 212 248 352 286 63 16 215 18 255 3 64 -24 122 -109 123 -180 0
-51 -64 -174 -117 -225 -25 -24 -66 -51 -96 -62 -42 -16 -53 -24 -55 -45 -3
-24 2 -28 53 -42 63 -19 97 -16 192 17 83 29 149 80 200 156 105 156 97 312
-23 422 -76 70 -140 93 -269 98 -93 3 -125 0 -210 -22 -55 -14 -143 -47 -195
-72 -80 -40 -109 -61 -185 -138 -67 -67 -100 -109 -123 -158 -85 -175 -81
-379 12 -572 76 -158 168 -272 341 -424 l70 -61 -307 -1 c-341 0 -375 -5 -403
-61 -25 -47 -18 -134 16 -229 108 -296 142 -453 142 -645 0 -209 -30 -358
-121 -605 -78 -212 -79 -295 -1 -493 85 -218 121 -405 121 -632 0 -216 -26
-359 -109 -605 -87 -254 -89 -319 -12 -364 28 -16 182 -17 2737 -16 2592 1
2712 1 2797 19 126 26 235 71 342 140 208 135 346 327 415 579 18 64 21 107
22 252 1 153 -2 186 -22 260 -50 182 -136 314 -326 497 -64 62 -116 118 -116
126 0 7 45 55 100 106 249 231 340 442 327 758 -4 98 -11 149 -31 216 -99 332
-352 576 -694 669 -65 18 -114 21 -328 25 l-251 5 54 87 c122 193 207 404 238
591 19 122 28 411 14 501 -19 132 -59 271 -126 439 -101 258 -160 344 -407
600 -190 197 -269 253 -726 513 -226 128 -452 242 -612 307 -137 57 -151 59
-146 28 3 -25 74 -71 308 -204 74 -43 216 -130 315 -194 99 -64 216 -138 260
-165 152 -91 191 -124 381 -316 188 -192 263 -286 327 -414 44 -88 144 -357
162 -435 19 -83 35 -402 23 -485 -4 -27 -11 -101 -17 -162 -5 -62 -20 -148
-31 -192 -27 -98 -129 -308 -202 -416 l-55 -80 -841 -3 c-463 -1 -842 0 -842
2 0 3 24 92 54 199 60 215 82 317 156 737 27 157 63 350 80 430 52 253 66 776
26 995 -45 244 -113 502 -167 631 -44 105 -133 250 -295 476 -146 205 -196
270 -253 331 -36 38 -43 42 -54 30z m2948 -4102 c207 -70 336 -184 430 -382
115 -243 96 -475 -56 -700 -90 -133 -206 -224 -354 -275 l-80 -28 -1845 -8
c-2386 -10 -3337 -8 -3367 10 -31 17 -29 37 11 194 52 197 69 328 69 513 0
213 -11 280 -98 595 -14 53 -7 80 26 97 19 10 565 12 2609 10 l2585 -2 70 -24z
m-65 -1646 c100 -25 256 -105 334 -172 118 -99 217 -249 260 -393 44 -146 24
-341 -51 -501 -99 -209 -257 -343 -488 -416 l-90 -28 -2567 -3 c-2795 -3
-2629 -6 -2644 52 -4 15 7 62 30 129 61 182 77 279 83 503 8 283 -23 521 -88
691 -33 86 -34 124 -2 139 16 8 4736 24 5033 18 73 -2 152 -10 190 -19z"/>
<path d="M7320 2045 l0 -345 200 0 c171 0 200 2 200 15 0 13 -27 15 -185 15
l-185 0 0 150 0 150 165 0 c140 0 165 2 165 15 0 13 -25 15 -165 15 l-165 0 0
150 0 150 185 0 c158 0 185 2 185 15 0 13 -29 15 -200 15 l-200 0 0 -345z"/>
<path d="M9180 2045 c0 -300 2 -345 15 -345 13 0 15 45 15 345 0 300 -2 345
-15 345 -13 0 -15 -45 -15 -345z"/>
<path d="M10180 2045 c0 -300 2 -345 15 -345 13 0 15 24 15 160 0 142 2 165
20 201 50 97 183 118 261 40 49 -49 59 -91 59 -258 0 -120 2 -143 15 -143 13
0 15 25 15 163 0 149 -2 166 -22 207 -35 68 -86 103 -157 108 -71 5 -120 -9
-161 -48 l-30 -28 0 144 c0 121 -2 144 -15 144 -13 0 -15 -45 -15 -345z"/>
<path d="M9410 2315 c0 -16 6 -25 15 -25 9 0 15 9 15 25 0 16 -6 25 -15 25 -9
0 -15 -9 -15 -25z"/>
<path d="M7900 1945 c0 -211 2 -245 15 -245 13 0 15 24 15 160 0 179 7 209 59
253 70 59 162 56 226 -8 47 -47 55 -86 55 -257 0 -125 2 -148 15 -148 13 0 15
24 15 156 0 181 -9 223 -60 274 -75 75 -196 78 -275 8 l-35 -30 0 41 c0 30 -4
41 -15 41 -13 0 -15 -34 -15 -245z"/>
<path d="M8636 2176 c-94 -35 -148 -111 -154 -216 -5 -84 10 -131 57 -183 46
-51 102 -77 169 -77 66 0 116 21 165 68 l37 36 0 -60 c0 -77 -30 -137 -88
-179 -36 -25 -51 -29 -105 -29 -34 1 -74 4 -89 9 -41 11 -37 -20 3 -34 115
-40 250 17 296 126 18 45 19 557 1 551 -8 -3 -14 -26 -16 -57 l-3 -52 -20 25
c-53 68 -173 102 -253 72z m165 -47 c154 -78 139 -316 -23 -383 -152 -64 -312
101 -257 265 24 69 73 116 149 140 33 10 85 2 131 -22z"/>
<path d="M9417 2183 c-4 -3 -7 -114 -7 -245 0 -205 2 -238 15 -238 13 0 15 34
15 245 0 224 -3 258 -23 238z"/>
<path d="M9757 2176 c-46 -17 -64 -32 -83 -67 -41 -81 21 -152 155 -174 90
-15 151 -56 151 -101 0 -32 -45 -81 -87 -95 -50 -16 -124 -5 -183 28 -27 15
-52 24 -56 21 -26 -27 75 -80 163 -86 78 -5 124 10 163 54 23 27 30 44 30 77
-1 70 -42 104 -166 133 -82 19 -119 37 -140 69 -13 20 -14 28 -2 51 33 69 139
89 221 40 44 -25 67 -27 67 -6 0 5 -20 21 -45 35 -54 32 -134 41 -188 21z"/>
<path d="M8010 830 l0 -520 50 0 50 0 0 111 0 112 56 63 c31 35 59 64 64 64 4
0 56 -79 115 -175 l108 -175 68 0 69 0 -130 206 c-72 114 -135 215 -141 226
-9 16 3 34 82 121 51 56 111 121 133 145 l40 42 -79 0 -80 0 -150 -176 -150
-176 -3 326 -2 326 -50 0 -50 0 0 -520z"/>
<path d="M9390 1185 l0 -135 -70 0 -70 0 0 -50 0 -50 70 0 70 0 0 -320 0 -320
50 0 50 0 0 320 0 320 75 0 75 0 0 50 0 50 -75 0 -75 0 0 135 0 135 -50 0 -50
0 0 -135z"/>
<path d="M8844 1059 c-128 -12 -194 -82 -194 -206 0 -79 20 -121 77 -159 30
-20 49 -26 210 -73 92 -27 133 -60 133 -108 0 -19 -5 -43 -11 -55 -26 -48
-152 -74 -222 -44 -41 17 -83 66 -92 106 -6 29 -9 30 -61 30 -48 0 -54 -2 -54
-21 0 -77 64 -168 144 -205 41 -19 68 -24 137 -24 102 0 163 18 209 63 43 42
60 84 60 151 0 125 -56 177 -240 225 -104 27 -148 48 -173 83 -25 34 -14 82
25 111 33 25 122 34 172 17 40 -13 86 -62 86 -91 0 -16 7 -19 55 -19 61 0 64
4 44 71 -34 111 -143 164 -305 148z"/>
<path d="M6632 1029 c-69 -34 -109 -78 -150 -166 -25 -53 -27 -68 -27 -183 0
-115 2 -130 27 -183 41 -88 81 -132 150 -166 52 -27 72 -31 138 -31 142 0 232
55 292 178 32 66 33 70 33 202 0 132 -1 136 -33 202 -60 123 -150 178 -292
178 -66 0 -86 -4 -138 -31z m243 -102 c124 -70 161 -291 71 -425 -43 -64 -95
-92 -172 -92 -79 0 -137 35 -176 106 -75 138 -40 335 71 406 59 37 146 39 206
5z"/>
<path d="M7392 1029 c-69 -34 -109 -78 -150 -166 -25 -53 -27 -68 -27 -183 0
-115 2 -130 27 -183 41 -88 81 -132 150 -166 52 -27 72 -31 138 -31 142 0 232
55 292 178 32 66 33 70 33 202 0 132 -1 136 -33 202 -60 123 -150 178 -292
178 -66 0 -86 -4 -138 -31z m243 -102 c124 -70 161 -291 71 -425 -43 -64 -95
-92 -172 -92 -79 0 -137 35 -176 106 -75 138 -40 335 71 406 59 37 146 39 206
5z"/>
<path d="M9892 1029 c-69 -34 -109 -78 -150 -166 -25 -53 -27 -68 -27 -183 0
-115 2 -130 27 -183 41 -88 81 -132 150 -166 52 -27 72 -31 138 -31 142 0 232
55 292 178 32 66 33 70 33 202 0 132 -1 136 -33 202 -60 123 -150 178 -292
178 -66 0 -86 -4 -138 -31z m243 -102 c124 -70 161 -291 71 -425 -43 -64 -95
-92 -172 -92 -79 0 -137 35 -176 106 -75 138 -40 335 71 406 59 37 146 39 206
5z"/>
<path d="M10745 1041 c-44 -20 -94 -69 -118 -116 -16 -30 -16 -29 -17 48 l0
77 -50 0 -50 0 0 -370 0 -370 49 0 48 0 6 197 c5 218 16 271 66 340 40 55 85
85 137 91 l44 5 0 58 0 59 -37 0 c-21 0 -56 -9 -78 -19z"/>
<path d="M11133 1044 c-63 -23 -128 -86 -165 -162 -32 -65 -33 -70 -33 -197 0
-125 1 -133 31 -195 37 -78 91 -134 159 -166 40 -19 66 -24 135 -24 99 0 153
20 213 78 36 34 87 118 87 142 0 6 -25 10 -57 10 -53 0 -59 -3 -74 -29 -40
-69 -130 -104 -224 -87 -48 9 -112 69 -141 131 -43 91 -61 85 247 85 l272 0
-5 89 c-9 151 -77 264 -192 317 -41 19 -67 24 -131 23 -44 0 -99 -7 -122 -15z
m233 -125 c39 -26 85 -97 98 -151 l6 -28 -215 0 c-239 0 -229 -3 -200 67 23
55 61 101 103 123 54 29 155 24 208 -11z"/>
</g>
</svg>
